{"title":"Akcent Ft. Sandra N. - I'm Sorry [Music Video] 1080p [Sbyky]","uid":10073968,"size":61959948,"categoryP":"video","categoryS":"music_videos","magnet":"?xt=urn:btih:65ba660db3852088478280eaedee603e5ca3a84d&amp;dn=Akcent+Ft.+Sandra+N.+-+I%27m+Sorry+%5BMusic+Video%5D+1080p+%5BSbyky%5D&amp;tr=udp%3A%2F%2Ftracker.openbittorrent.com%3A80&amp;tr=udp%3A%2F%2Fopen.demonii.com%3A1337&amp;tr=udp%3A%2F%2Ftracker.coppersurfer.tk%3A6969&amp;tr=udp%3A%2F%2Fexodus.desync.com%3A6969","seeders":1,"leechers":2,"uploader":"Sbyky","files":1,"time":1398893211,"description":"\n\nGeneral\nComplete name                            : Akcent Ft. Sandra N. - I'm Sorry [Music Video] 1080p [Sbyky].MP4\nFormat                                   : MPEG-4\nFormat profile                           : Base Media\nCodec ID                                 : isom\nFile size                                : 59.1 MiB\nDuration                                 : 4mn 2s\nOverall bit rate mode                    : Variable\nOverall bit rate                         : 2 041 Kbps\nEncoded date                             : UTC 2014-03-07 18:18:18\nTagged date                              : UTC 2014-03-07 18:18:18\n\nVideo\nID                                       : 1\nFormat                                   : AVC\nFormat/Info                              : Advanced Video Codec\nFormat profile                           : &lt;a class=&quot;__cf_email__&quot; href=&quot;/cdn-cgi/l/email-protection&quot; data-cfemail=&quot;c189a8a6a9818df5eff1&quot;&gt;[email&amp;#160;protected]&lt;/a&gt;&lt;script cf-hash='f9e31' type=&quot;text/javascript&quot;&gt;\n/* &lt;![CDATA[ */!function(){try{var t=&quot;currentScript&quot;in document?document.currentScript:function(){for(var t=document.getElementsByTagName(&quot;script&quot;),e=t.length;e--;)if(t[e].getAttribute(&quot;cf-hash&quot;))return t[e]}();if(t&amp;&amp;t.previousSibling){var e,r,n,i,c=t.previousSibling,a=c.getAttribute(&quot;data-cfemail&quot;);if(a){for(e=&quot;&quot;,r=parseInt(a.substr(0,2),16),n=2;a.length-n;n+=2)i=parseInt(a.substr(n,2),16)^r,e+=String.fromCharCode(i);e=document.createTextNode(e),c.parentNode.replaceChild(e,c)}}}catch(u){}}();/* ]]&gt; */&lt;/script&gt;\nFormat settings, CABAC                   : Yes\nFormat settings, ReFrames                : 3 frames\nCodec ID                                 : avc1\nCodec ID/Info                            : Advanced Video Coding\nDuration                                 : 4mn 2s\nDuration_LastFrame                       : -39ms\nBit rate                                 : 1 914 Kbps\nWidth                                    : 1 920 pixels\nHeight                                   : 1 080 pixels\nDisplay aspect ratio                     : 16:9\nFrame rate mode                          : Constant\nFrame rate                               : 25.000 fps\nColor space                              : YUV\nChroma subsampling                       : 4:2:0\nBit depth                                : 8 bits\nScan type                                : Progressive\nBits/(Pixel*Frame)                       : 0.037\nStream size                              : 55.4 MiB (94%)\nEncoded date                             : UTC 2014-03-07 18:18:18\nTagged date                              : UTC 2014-03-07 18:18:18\n\nAudio\nID                                       : 2\nFormat                                   : AAC\nFormat/Info                              : Advanced Audio Codec\nFormat profile                           : LC\nCodec ID                                 : 40\nDuration                                 : 4mn 2s\nBit rate mode                            : Variable\nBit rate                                 : 126 Kbps\nChannel(s)                               : 2 channels\nChannel positions                        : Front: L R\nSampling rate                            : 44.1 KHz\nCompression mode                         : Lossy\nStream size                              : 3.64 MiB (6%)\nEncoded date                             : UTC 2014-03-07 18:17:18\nTagged date                              : UTC 2014-03-07 18:17:18\n\nShared By Sbyky\n","torrent":{"xt":"urn:btih:65ba660db3852088478280eaedee603e5ca3a84d","amp;dn":"Akcent+Ft.+Sandra+N.+-+I%27m+Sorry+%5BMusic+Video%5D+1080p+%5BSbyky%5D","amp;tr":["udp%3A%2F%2Ftracker.openbittorrent.com%3A80","udp%3A%2F%2Fopen.demonii.com%3A1337","udp%3A%2F%2Ftracker.coppersurfer.tk%3A6969","udp%3A%2F%2Fexodus.desync.com%3A6969"],"infoHash":"65ba660db3852088478280eaedee603e5ca3a84d","infoHashBuffer":{"type":"Buffer","data":[101,186,102,13,179,133,32,136,71,130,128,234,237,238,96,62,92,163,168,77]},"announce":[],"urlList":[]}}